<?xml version="1.0" encoding="UTF-8" standalone="no"?>
<!-- Created with Inkscape (http://www.inkscape.org/) -->

<svg
   xmlns:dc="http://purl.org/dc/elements/1.1/"
   xmlns:cc="http://creativecommons.org/ns#"
   xmlns:rdf="http://www.w3.org/1999/02/22-rdf-syntax-ns#"
   xmlns:svg="http://www.w3.org/2000/svg"
   xmlns="http://www.w3.org/2000/svg"
   xmlns:sodipodi="http://sodipodi.sourceforge.net/DTD/sodipodi-0.dtd"
   xmlns:inkscape="http://www.inkscape.org/namespaces/inkscape"
   id="svg2"
   version="1.1"
   inkscape:version="0.48.2 r9819"
   width="1280"
   height="579"
   sodipodi:docname="ekg9.png">
  <metadata
     id="metadata8">
    <rdf:RDF>
      <cc:Work
         rdf:about="">
        <dc:format>image/svg+xml</dc:format>
        <dc:type
           rdf:resource="http://purl.org/dc/dcmitype/StillImage" />
        <dc:title></dc:title>
      </cc:Work>
    </rdf:RDF>
  </metadata>
  <defs
     id="defs6" />
  <sodipodi:namedview
     pagecolor="#ffffff"
     bordercolor="#666666"
     borderopacity="1"
     objecttolerance="10"
     gridtolerance="10"
     guidetolerance="10"
     inkscape:pageopacity="0"
     inkscape:pageshadow="2"
     inkscape:window-width="1280"
     inkscape:window-height="744"
     id="namedview4"
     showgrid="false"
     inkscape:zoom="1.08125"
     inkscape:cx="314.20388"
     inkscape:cy="289.5"
     inkscape:window-x="-4"
     inkscape:window-y="-4"
     inkscape:window-maximized="1"
     inkscape:current-layer="svg2" />
  <g
     id="g3051"
     transform="matrix(2.8589594,0,0,2.8589594,-446.47529,-617.82734)"
     inkscape:export-filename="C:\xampp\htdocs\pogotowie\ekg\img_ekg\ekg9_zoom.png"
     inkscape:export-xdpi="90"
     inkscape:export-ydpi="90">
    <path
       transform="translate(-3.0057804,28.901734)"
       sodipodi:type="arc"
       style="opacity:0.63500013;fill:#ff0000;fill-opacity:1;stroke:none"
       id="path3025"
       sodipodi:cx="323.237"
       sodipodi:cy="267.0925"
       sodipodi:rx="1.3872832"
       sodipodi:ry="1.3872832"
       d="m 324.62428,267.0925 c 0,0.76617 -0.62111,1.38728 -1.38728,1.38728 -0.76618,0 -1.38728,-0.62111 -1.38728,-1.38728 0,-0.76618 0.6211,-1.38728 1.38728,-1.38728 0.76617,0 1.38728,0.6211 1.38728,1.38728 z" />
    <path
       transform="translate(8.0924856,28.67052)"
       d="m 324.62428,267.0925 c 0,0.76617 -0.62111,1.38728 -1.38728,1.38728 -0.76618,0 -1.38728,-0.62111 -1.38728,-1.38728 0,-0.76618 0.6211,-1.38728 1.38728,-1.38728 0.76617,0 1.38728,0.6211 1.38728,1.38728 z"
       sodipodi:ry="1.3872832"
       sodipodi:rx="1.3872832"
       sodipodi:cy="267.0925"
       sodipodi:cx="323.237"
       id="path3021"
       style="opacity:0.63500013;fill:#ff0000;fill-opacity:1;stroke:none"
       sodipodi:type="arc" />
    <path
       transform="translate(-1.3872832,-3.4682081)"
       d="m 344.04623,303.9711 c 0,11.17339 -7.45329,20.23121 -16.6474,20.23121 -9.1941,0 -16.64739,-9.05782 -16.64739,-20.23121 0,-11.17339 7.45329,-20.23121 16.64739,-20.23121 9.19411,0 16.6474,9.05782 16.6474,20.23121 z"
       sodipodi:ry="20.231215"
       sodipodi:rx="16.647398"
       sodipodi:cy="303.9711"
       sodipodi:cx="327.39883"
       id="path3023"
       style="opacity:0.47879016;fill:none;stroke:#ff0000;stroke-width:0.34977761"
       sodipodi:type="arc" />
    <path
       inkscape:connector-curvature="0"
       id="path3002"
       d="m 272.83237,313.79769 15.95375,0.23121 c 0,0 4.62428,-9.24855 14.10405,2.31214 l 5.31792,0 1.15607,1.84971 2.77456,-70.98266 3.69943,61.04047 2.08092,-1.15607 c 0,0 2.08093,12.48555 24.27746,-8.55492 0,0 5.0867,12.48555 6.93641,13.87283"
       style="fill:none;stroke:#000000;stroke-width:0.34977761px;stroke-linecap:butt;stroke-linejoin:miter;stroke-opacity:1" />
    <path
       inkscape:connector-curvature="0"
       id="path3027"
       d="m 317.91908,307.09248 c 0,0 2.77456,8.78613 14.79768,-0.46242"
       style="opacity:0.63500013;fill:none;stroke:#ff0000;stroke-width:0.34977761px;stroke-linecap:butt;stroke-linejoin:miter;stroke-opacity:1" />
    <path
       inkscape:transform-center-x="11.593765"
       inkscape:transform-center-y="-10.842215"
       style="fill:#4d4d4d;stroke:none"
       d="m 283.52994,294.84346 17.25846,16.12219 -0.76807,0.82221 3.34857,2.1712 3.34858,2.17118 -2.39387,-3.19318 -2.39387,-3.19318 -0.76986,0.82412 -17.25847,-16.12219 -0.37147,0.39765 z"
       id="path3017"
       inkscape:connector-curvature="0" />
    <path
       inkscape:transform-center-x="-14.417882"
       inkscape:transform-center-y="15.065242"
       inkscape:connector-curvature="0"
       id="rect3004"
       d="m 286.25692,277.43785 21.47995,22.38668 -1.09603,0.98838 4.25469,3.11012 4.25473,3.11011 -2.89237,-4.33866 -2.89235,-4.33864 -1.09859,0.99068 -21.47994,-22.3867 -0.53009,0.47803 z"
       style="fill:#4d4d4d;stroke:none" />
    <text
       sodipodi:linespacing="125%"
       id="text3035"
       y="267.96365"
       x="250.45787"
       style="font-size:5.34093666px;font-style:normal;font-weight:normal;line-height:125%;letter-spacing:0px;word-spacing:0px;fill:#000000;fill-opacity:1;stroke:none;font-family:Sans"
       xml:space="preserve"><tspan
         y="267.96365"
         x="250.45787"
         id="tspan3037"
         sodipodi:role="line">Zazębiony punkt J </tspan><tspan
         id="tspan3039"
         y="274.63983"
         x="250.45787"
         sodipodi:role="line">i wklęsłe uniesienie ST</tspan></text>
    <text
       sodipodi:linespacing="125%"
       id="text3041"
       y="292.97058"
       x="262.1506"
       style="font-size:4.16697502px;font-style:normal;font-weight:normal;line-height:125%;letter-spacing:0px;word-spacing:0px;fill:#000000;fill-opacity:1;stroke:none;font-family:Sans"
       xml:space="preserve"><tspan
         y="292.97058"
         x="262.1506"
         id="tspan3043"
         sodipodi:role="line">Obniżenie PQ</tspan></text>
    <rect
       inkscape:export-ydpi="90"
       inkscape:export-xdpi="90"
       y="233.10117"
       x="240.92485"
       height="98.500008"
       width="138.5"
       id="rect3045"
       style="opacity:0.63500013;fill:none;stroke:#0000ff;stroke-width:0.52466649;stroke-miterlimit:4;stroke-opacity:1;stroke-dasharray:none" />
  </g>
</svg>
